<svg xmlns="http://www.w3.org/2000/svg" viewBox="0 0 471.9 379.18"><defs><style>.a,.b,.d{fill:none;}.a,.d{stroke:#65c5ef;}.a,.b,.c,.d{stroke-linecap:round;stroke-miterlimit:10;}.a,.b{stroke-width:12px;}.b{stroke:#333;}.c{fill:#315087;stroke:#315087;}.c,.d{stroke-width:25px;}</style></defs><path class="a" d="M619.47,1386.94c-4.46,1.89-7.23,4.87-6.77,7.43.64,3.63,7.48,5,10.16,5.58,12.63,2.59,24.11-3.61,26-4.65,14-7.8,16.21-20.7,16.38-21.82.13-.91,2.12-15.73-9-24.15-12.34-9.32-37.43-8.3-56.46,6.5" transform="translate(-318.55 -1092.24)"/><path class="a" d="M602,1325.18a47.57,47.57,0,0,0,12.42,11.14c3.89,2.45,8.12,5.34,14.68,6.51a37.35,37.35,0,0,0,3.95.46" transform="translate(-318.55 -1092.24)"/><path class="a" d="M646,1289a38.73,38.73,0,0,1,16.94-5.57,40.14,40.14,0,0,1,32.75,13c9.51,10.94,8.82,25.81.56,36.69-8.49,11.18-24.37,17.33-40.65,15.79" transform="translate(-318.55 -1092.24)"/><path class="a" d="M566.22,1259a87,87,0,0,1,50.6-21.26c8.09-.62,39.84-3.06,53.13,14.31,9.71,12.69,3.42,27.9,2,31.06" transform="translate(-318.55 -1092.24)"/><path class="a" d="M576,1250.87c-3-2.46-34.56-28.1-74-20.89-4.93.9-38.68,7.07-45.17,29.72-5.13,17.89,9.89,35.1,25.41,43.19,20.07,10.45,47.46,9,68.88-3.72" transform="translate(-318.55 -1092.24)"/><path class="a" d="M572,1319.14a85.35,85.35,0,0,0-27.1-9.29,92.23,92.23,0,0,0-30.23,0" transform="translate(-318.55 -1092.24)"/><path class="a" d="M458.56,1280.6c-2.45-.26-31.87-2.92-48.56,13.93-19,19.18-8.86,50.91,10.16,60.37.93.46,13.47,6.51,24.84,2.79,6.11-2,8.54-5.73,12.43-9.29,5.94-5.45,16.38-11.51,36.13-13.93" transform="translate(-318.55 -1092.24)"/><path class="a" d="M583.9,1372.55c-36.21,15.45-56.18,13.27-67.75,8.36-11.84-5-17.91-14.21-37.27-20.44a100.47,100.47,0,0,0-29.36-4.64" transform="translate(-318.55 -1092.24)"/><path class="a" d="M555.11,1382.3c2.83-1.34,21.31-10.4,23.14-26.47a23.81,23.81,0,0,0-1.12-10.22" transform="translate(-318.55 -1092.24)"/><path class="a" d="M581.64,1404.13c-25.24,9.13-63.11,19.17-104.31,15.79-19.82-1.63-36.47-6.05-48.6-17.65-3.94-3.78-12-11.53-10.91-21.36s11.37-18.77,25.79-22.3" transform="translate(-318.55 -1092.24)"/><path class="a" d="M499.21,1264.81c.89-.06,9.58-.51,14.68,4.64s4.5,13.55-2.26,19.5" transform="translate(-318.55 -1092.24)"/><path class="a" d="M595.19,1296.38c-.43-.78-5.26-9.91,1.13-18.57,4.83-6.55,14.13-10.19,23.72-9.29" transform="translate(-318.55 -1092.24)"/><path class="a" d="M518.41,1275a95.37,95.37,0,0,1,23.71-4.64,100.45,100.45,0,0,1,50.81,10.22" transform="translate(-318.55 -1092.24)"/><path class="a" d="M662.79,1454.28A107.37,107.37,0,0,1,636,1423.63a100.06,100.06,0,0,1-8.92-20.43" transform="translate(-318.55 -1092.24)"/><path class="a" d="M628.08,1465.43a300.29,300.29,0,0,1-33.72-27.87,291.29,291.29,0,0,1-24.79-26.93" transform="translate(-318.55 -1092.24)"/><path class="b" d="M425.76,1281.52" transform="translate(-318.55 -1092.24)"/><line class="c" x1="12.5" y1="186.76" x2="235.53" y2="12.76"/><line class="d" x1="459.4" y1="186.5" x2="236.37" y2="12.5"/></svg>